PathFileType	4	(X/Y/Z)	/Users/itak/Documents/Research/Walk-IL/dataset/trc/00524_00183.trc
DataRate	CameraRate	NumFrames	NumMarkers	Units	OrigDataRate	OrigDataStartFrame	OrigNumFrames
100.000000	100.000000	4	53	mm	100.000000	348	557
Frame#	Time	RPSI			LPSI			L3			STRN			T10			C7			CLAV			RBAK			LBAK			LSHO			LUPA			LAEL			LAOL			LWTS			LWPS			LFRA			LIFD			LHPS			LHTS			RSHO			RUPA			RAEL			RAOL			RWTS			RWPS			RFRA			RIFD			RHTS			RHPS			RBHD			LFHD			RFHD			LBHD			LHIP			RHIP			RASI			LASI			LKNE			LTHI			LANK			LTIP			LTOE			LMT1			LMT5			LHEE			RKNE			RTHI			RANK			RTIP			RTOE			RMT1			RMT5			RHEE			
		X1	Y1	Z1	X2	Y2	Z2	X3	Y3	Z3	X4	Y4	Z4	X5	Y5	Z5	X6	Y6	Z6	X7	Y7	Z7	X8	Y8	Z8	X9	Y9	Z9	X10	Y10	Z10	X11	Y11	Z11	X12	Y12	Z12	X13	Y13	Z13	X14	Y14	Z14	X15	Y15	Z15	X16	Y16	Z16	X17	Y17	Z17	X18	Y18	Z18	X19	Y19	Z19	X20	Y20	Z20	X21	Y21	Z21	X22	Y22	Z22	X23	Y23	Z23	X24	Y24	Z24	X25	Y25	Z25	X26	Y26	Z26	X27	Y27	Z27	X28	Y28	Z28	X29	Y29	Z29	X30	Y30	Z30	X31	Y31	Z31	X32	Y32	Z32	X33	Y33	Z33	X34	Y34	Z34	X35	Y35	Z35	X36	Y36	Z36	X37	Y37	Z37	X38	Y38	Z38	X39	Y39	Z39	X40	Y40	Z40	X41	Y41	Z41	X42	Y42	Z42	X43	Y43	Z43	X44	Y44	Z44	X45	Y45	Z45	X46	Y46	Z46	X47	Y47	Z47	X48	Y48	Z48	X49	Y49	Z49	X50	Y50	Z50	X51	Y51	Z51	X52	Y52	Z52	X53	Y53	Z53	

349	3.48	89.35765838623047	943.2493286132812	267.6188049316406	142.6130981445312	937.0699462890625	156.0291137695312	117.4614105224609	1014.028930664062	202.178466796875	313.8368225097656	1177.882202148438	279.4985656738281	99.55986022949219	1116.761352539062	194.0899658203125	135.9039611816406	1348.475341796875	209.6755218505859	279.7977600097656	1272.635620117188	265.5093688964844	60.45228576660156	1226.573974609375	272.6038818359375	145.4186553955078	1294.221435546875	119.0012130737305	260.7779846191406	1341.1240234375	86.53612518310547	277.33984375	1215.881958007812	24.62340927124023	300.8464050292969	1006.654479980469	4.797510623931885	205.9485015869141	997.131591796875	34.9136848449707	368.5763549804688	819.2684936523438	83.07206726074219	328.5896301269531	786.6076049804688	4.0989089012146	322.8001403808594	932.0712280273438	11.49141311645508	367.5735168457031	660.5487060546875	83.93614959716797	346.7412109375	732.4954223632812	19.79126930236816	387.4617004394531	741.6851196289062	69.32345581054688	132.9402923583984	1344.335693359375	367.5773010253906	96.30955505371094	1277.839721679688	415.3923034667969	87.14467620849609	1011.619079589844	465.9985961914062	54.93952941894531	992.6892700195312	411.1885375976562	205.8526306152344	816.6377563476562	485.1710510253906	117.9964447021484	789.6823120117188	495.4754943847656	91.35106658935547	957.2422485351562	476.0646362304688	213.8629302978516	655.9869995117188	492.5641784667969	213.9305725097656	723.4905395507812	514.8867797851562	144.0232391357422	716.4030151367188	504.6848754882812	139.7525787353516	1500.135131835938	305.7449340820312	311.9999694824219	1567.9052734375	230.1045837402344	258.5308227539062	1558.4873046875	345.0455322265625	194.1017608642578	1507.745727539062	155.8505401611328	293.7295532226562	859.3035888671875	84.04261016845703	144.1414794921875	852.6729736328125	432.7999877929688	254.8573303222656	905.869384765625	407.7710266113281	349.1086730957031	898.4317626953125	184.2540283203125	278.5635070800781	436.1639099121094	133.4503936767578	311.8606567382812	594.401611328125	123.9334487915039	-27.76026725769043	166.2598419189453	-13.79256629943848	184.6152038574219	329.9375305175781	80.55511474609375	52.60563278198242	30.07518768310547	91.51476287841797	-4.645709991455078	71.44376373291016	100.1501235961914	35.17389678955078	80.50475311279297	2.650625467300415	-78.91987609863281	199.1236267089844	31.11649703979492	265.9418334960938	482.446533203125	427.6866455078125	188.0064849853516	731.778564453125	449.5051574707031	264.1360778808594	45.20560836791992	397.5511779785156	303.0040588378906	338.024658203125	427.0018920898438	465.7233276367188	43.26574325561523	442.1032104492188	421.46728515625	45.40583038330078	379.5430908203125	360.9718627929688	41.76350784301758	455.1882629394531	239.4819641113281	33.62444686889648	331.7711791992188	
350	3.49	96.08976745605469	944.4276123046875	273.6124267578125	148.5470428466797	937.3516235351562	161.6687774658203	124.1005554199219	1014.832092285156	208.1946716308594	321.1203002929688	1178.585571289062	284.3471069335938	106.5172882080078	1117.590698242188	200.34765625	142.9107360839844	1349.319213867188	215.2146759033203	287.1074523925781	1273.363403320312	270.3951110839844	67.80617523193359	1227.518432617188	278.7914428710938	151.9294128417969	1294.90380859375	124.5444641113281	267.1535949707031	1341.662353515625	91.42377471923828	283.1875305175781	1216.336547851562	29.50637626647949	305.8689270019531	1007.091918945312	9.362166404724121	211.1210021972656	997.8367309570312	40.16071701049805	373.2822265625	819.2037353515625	86.96586608886719	332.6320190429688	786.918212890625	8.154090881347656	327.5960998535156	932.3729248046875	15.79419231414795	370.9923095703125	660.4757080078125	87.72492218017578	350.4487609863281	732.666748046875	23.71307945251465	391.4984436035156	741.433349609375	73.06300354003906	140.9204254150391	1345.404296875	373.1492004394531	104.4500274658203	1279.0771484375	421.3121337890625	95.32411956787109	1012.987121582031	472.6991271972656	62.59218215942383	993.9864501953125	418.2801513671875	213.9879302978516	818.0111083984375	491.0617980957031	126.3567733764648	791.1939697265625	502.5999145507812	99.63826751708984	958.612060546875	482.8427429199219	222.2022857666016	657.4750366210938	499.2566833496094	222.5151062011719	725.1253662109375	521.2000122070312	152.3500061035156	718.1714477539062	512.11328125	146.5395355224609	1500.938232421875	310.4062805175781	318.3099060058594	1569.071411132812	234.0014038085938	265.1920776367188	1559.958374023438	349.1012268066406	200.3255004882812	1507.997436523438	160.3591766357422	299.7933349609375	859.160888671875	89.63192749023438	151.1913299560547	853.9288330078125	438.201171875	262.1283264160156	906.6159057617188	413.0081787109375	355.2199096679688	898.949951171875	189.0973968505859	294.3628234863281	435.8172302246094	141.327392578125	322.7060241699219	594.5945434570312	130.3624725341797	-16.32827186584473	174.9313049316406	-7.913251876831055	199.7626495361328	331.97802734375	88.15692901611328	57.87917327880859	29.96776580810547	93.96450042724609	2.848933696746826	76.30877685546875	103.7531890869141	42.51873397827148	85.82025146484375	6.403990268707275	-66.18865966796875	208.6664581298828	37.67485046386719	269.1583557128906	482.0750122070312	431.4124755859375	193.82861328125	732.5941772460938	454.9431457519531	264.3012390136719	45.13093948364258	397.7748413085938	304.891357421875	337.3834838867188	429.4381103515625	466.0525512695312	41.71896743774414	442.5244750976562	421.6402587890625	44.96501541137695	379.9293518066406	361.1993713378906	40.98042678833008	455.6324462890625	239.5697937011719	33.85692596435547	331.9843444824219	
351	3.5	102.616455078125	945.5695190429688	279.4754028320312	154.2513122558594	937.5520629882812	167.16015625	130.4792633056641	1015.604797363281	214.0413208007812	328.3249816894531	1179.220947265625	288.92626953125	113.3099517822266	1118.467651367188	206.5816345214844	149.8703765869141	1350.172607421875	220.7062683105469	294.3736267089844	1274.033569335938	275.0824890136719	75.14670562744141	1228.478759765625	284.9788818359375	158.3094940185547	1295.603759765625	130.0245056152344	273.3702697753906	1342.193725585938	96.13710784912109	288.8105163574219	1216.761596679688	34.25268173217773	310.821044921875	1007.509338378906	13.88087940216064	216.2182312011719	998.4737548828125	45.27964782714844	378.0396728515625	819.2848510742188	90.94219970703125	336.8508911132812	787.2494506835938	12.29925632476807	332.3865966796875	932.69580078125	20.10504913330078	374.7578125	660.56982421875	91.72381591796875	354.4061584472656	732.9118041992188	27.76994895935059	395.7287292480469	741.3711547851562	76.94306182861328	148.9800415039062	1346.428344726562	378.6633605957031	112.6898727416992	1280.269165039062	427.1967468261719	103.4921569824219	1014.317749023438	479.3648376464844	70.20040130615234	995.2476806640625	425.3672485351562	222.056640625	819.3401489257812	496.9050903320312	134.6811218261719	792.6729125976562	509.6500854492188	107.890739440918	959.9415893554688	489.5828857421875	230.5239105224609	658.9417724609375	505.9798889160156	231.0459899902344	726.7442016601562	527.5209350585938	160.6500701904297	719.8494873046875	519.5213012695312	153.3401641845703	1501.680541992188	315.0098571777344	324.6071166992188	1570.221435546875	237.8228149414062	271.8506469726562	1561.390625	353.0914916992188	206.5611114501953	1508.23291015625	164.7965850830078	305.6629943847656	859.0276489257812	95.04513549804688	157.9749755859375	855.2332763671875	443.3070068359375	269.2667236328125	907.3248291015625	417.996337890625	361.1991577148438	899.511962890625	193.6773986816406	310.2541809082031	435.768798828125	149.3259582519531	333.3803405761719	594.92529296875	136.6936492919922	-4.130887508392334	183.0613098144531	-1.467621326446533	215.2210693359375	334.0864868164062	96.05889892578125	64.886474609375	30.4654426574707	97.20920562744141	11.79144668579102	81.24474334716797	108.1485061645508	51.22538375854492	91.29059600830078	10.96923542022705	-52.98007202148438	217.3726654052734	44.71179580688477	272.2111511230469	481.7195739746094	435.0468139648438	199.471923828125	733.3143920898438	460.215087890625	264.4069213867188	45.04948425292969	397.96728515625	306.5844421386719	336.7725219726562	431.7827453613281	466.2662353515625	40.53318405151367	442.8676147460938	421.7536926269531	44.66252517700195	380.2807006835938	361.3431396484375	40.30236434936523	456.0423278808594	239.6059112548828	34.08332061767578	332.1773986816406	
352	3.51	108.9573211669922	946.6675415039062	285.1683959960938	159.791259765625	937.7042846679688	172.4764404296875	136.6156463623047	1016.364074707031	219.6912078857422	335.4340209960938	1179.814453125	293.2481994628906	119.9456405639648	1119.404907226562	212.7503814697266	156.7746124267578	1351.045776367188	226.1254730224609	301.5755310058594	1274.667724609375	279.572998046875	82.44551849365234	1229.468383789062	291.1272583007812	164.5599670410156	1296.336059570312	135.422607421875	279.4338989257812	1342.739135742188	100.6808776855469	294.2254333496094	1217.188110351562	38.85766220092773	315.6805114746094	1007.932312011719	18.35023880004883	221.22119140625	999.0785522460938	50.29757690429688	382.8597106933594	819.533203125	94.99395751953125	341.2134704589844	787.6234741210938	16.53201293945312	337.142333984375	933.0665893554688	24.42143249511719	378.8821411132812	660.83349609375	95.88594818115234	358.5927124023438	733.2450561523438	31.94837951660156	400.1508483886719	741.5108032226562	80.93538665771484	157.0811157226562	1347.429565429688	384.0910034179688	120.9983825683594	1281.43505859375	433.0224609375	111.6528701782227	1015.63330078125	485.9680480957031	77.78594207763672	996.4909057617188	432.4093933105469	230.04833984375	820.6300048828125	502.693359375	142.9563446044922	794.135498046875	516.5986938476562	116.1108016967773	961.25439453125	496.25927734375	238.78857421875	660.3872680664062	512.7033081054688	239.4994659423828	728.341552734375	533.8284912109375	168.8925933837891	721.4483642578125	526.8701782226562	160.1570434570312	1502.374633789062	319.5552368164062	330.9019165039062	1571.35888671875	241.5801239013672	278.5106201171875	1562.778442382812	357.0289916992188	212.8193511962891	1508.478393554688	169.1685638427734	311.3834838867188	858.9602661132812	100.2710647583008	164.4549255371094	856.6082763671875	448.1629028320312	276.2435302734375	908.0230712890625	422.7777099609375	367.0717468261719	900.1512451171875	198.0584716796875	326.1389770507812	436.0764770507812	157.4222717285156	343.8831481933594	595.4442749023438	142.9618835449219	8.73157787322998	190.3883666992188	5.529793739318848	230.8544921875	336.2709655761719	104.2221145629883	73.931640625	31.72093200683594	101.3800277709961	22.3370246887207	86.07024383544922	113.4111862182617	61.44815063476562	96.73778533935547	16.38920402526855	-39.40468597412109	224.9978332519531	52.21508407592773	275.1705627441406	481.3912048339844	438.5538024902344	205.0600891113281	733.94921875	465.3296813964844	264.4671936035156	44.97046661376953	398.129150390625	308.1695556640625	336.2008056640625	434.0097351074219	466.3938598632812	39.6784782409668	443.1181030273438	421.8200073242188	44.46846771240234	380.5782470703125	361.4187927246094	39.74709320068359	456.4013061523438	239.5980377197266	34.30250930786133	332.3554077148438	
